<svg xmlns="http://www.w3.org/2000/svg" width="180.907" height="118.626" viewBox="0 0 180.907 118.626"><defs><style>.a{fill:#ffa700;}.b{fill:none;stroke:#fff;stroke-miterlimit:10;stroke-width:5px;}.c{fill:#474747;}.d{fill:#fff;}</style></defs><circle class="a" cx="8.499" cy="8.499" r="8.499" transform="translate(7.987 7.657)"/><line class="b" x2="0.22" y2="0.22" transform="translate(84.903 15.332)"/><rect class="a" width="10.368" height="76.129" rx="2.26" transform="translate(40.357 83.283) rotate(-90.17)"/><rect class="c" width="179.533" height="28.466" rx="2.5" transform="translate(0 68.161)"/><rect class="d" width="10.368" height="76.129" rx="2.26" transform="translate(88.445 87.593) rotate(-90.17)"/><rect class="a" width="10.368" height="10.368" rx="2.26" transform="translate(51.576 88.08) rotate(-90.17)"/><rect class="a" width="10.368" height="10.368" rx="2.26" transform="translate(33.623 88.153) rotate(-90.17)"/><rect class="a" width="10.368" height="10.368" rx="2.26" transform="translate(15.031 87.824) rotate(-90.17)"/><rect class="c" width="179.533" height="28.466" rx="2.5" transform="translate(0 34.09)"/><rect class="d" width="10.368" height="76.129" rx="2.26" transform="translate(88.426 53.513) rotate(-90.17)"/><rect class="a" width="10.368" height="10.368" rx="2.26" transform="translate(51.73 54.129) rotate(-90)"/><rect class="a" width="10.368" height="10.368" rx="2.26" transform="translate(33.605 54.073) rotate(-90.17)"/><rect class="a" width="10.368" height="10.368" rx="2.26" transform="translate(15.013 53.726) rotate(-90.17)"/><rect class="c" width="179.533" height="28.466" rx="2.5"/><rect class="d" width="10.368" height="76.129" rx="2.26" transform="translate(88.426 19.433) rotate(-90.17)"/><rect class="a" width="10.368" height="10.368" rx="2.26" transform="translate(51.576 19.902) rotate(-90.17)"/><rect class="a" width="10.368" height="10.368" rx="2.26" transform="translate(33.605 19.975) rotate(-90.17)"/><rect class="a" width="10.368" height="10.368" rx="2.26" transform="translate(15.031 19.646) rotate(-90.17)"/><rect class="c" width="9.525" height="179.533" rx="0.86" transform="translate(1.374 118.626) rotate(-90)"/><rect class="c" width="9.525" height="27.037" rx="0.86" transform="translate(87.816 91.589)"/></svg>