<svg xmlns="http://www.w3.org/2000/svg" width="185.356" height="122.126" viewBox="0 0 185.356 122.126"><defs><style>.a{fill:none;stroke:#fff;stroke-width:5px;}.a,.b{stroke-miterlimit:10;}.b{fill:#1e4b5f;stroke:#353535;stroke-width:7px;}.c{fill:#aab2b5;opacity:0.1;}.d{fill:#474747;}.e{fill:#fff;}.f{fill:#ffa700;}.g{fill:#e2e2e2;}</style></defs><g transform="translate(-0.008)"><g transform="translate(0.008 3.5)"><line class="a" x2="38.183" transform="translate(93.838 24.971)"/><line class="a" x2="0.085" y2="0.085" transform="translate(90.66 25.427)"/><rect class="b" width="155.7" height="93.589" rx="14.41" transform="translate(15.385)"/><path class="c" d="M5.017,127.561H179.752s7.957-14.8,4.922-17.441C181.43,107.274,5,110,5,110s-5.273.095-4.979,2.532S5.017,127.561,5.017,127.561Z" transform="translate(-0.008 -8.934)"/><path class="d" d="M5.639,126.616h173.5s7.9-12.557,4.884-14.8c-3.225-2.39-178.414-.1-178.414-.1s-5.235.076-4.941,2.115S5.639,126.616,5.639,126.616Z" transform="translate(-0.041 -9.033)"/><rect class="e" width="32.891" height="16.028" transform="translate(39.465 25.19)"/><rect class="f" width="32.891" height="26.897" transform="translate(39.465 44.698)"/><rect class="e" width="62.339" height="4.154" transform="translate(87.967 25.19)"/><rect class="e" width="62.339" height="4.154" transform="translate(87.967 41.218)"/><rect class="e" width="62.339" height="4.154" transform="translate(87.967 33.204)"/><rect class="e" width="40.298" height="4.154" transform="translate(110.008 50.275)"/><path class="g" d="M79.35,111.05l31.278-.19-4.543,8.479H84.8Z" transform="translate(-4.101 -9.039)"/></g></g></svg>