<svg xmlns="http://www.w3.org/2000/svg" width="37.246" height="37.247" viewBox="0 0 37.246 37.247"><defs><style>.a{fill:#fff;}</style></defs><path class="a" d="M18.623,0A18.7,18.7,0,0,0,0,18.623c0,8.729,6.125,16.658,14.258,18.623V31.085a4.484,4.484,0,0,1-5.027-2.236c-.423-.714-1.173-1.488-1.955-1.431l-.192-2.174a4.488,4.488,0,0,1,4.024,2.49,2.413,2.413,0,0,0,1.4,1.2,2.933,2.933,0,0,0,1.832-.159,5.115,5.115,0,0,1,1.283-2.624h0c-4.851-.723-6.784-3.3-7.551-5.328a8.545,8.545,0,0,1,1.327-8.2.292.292,0,0,0,.074-.226A7.144,7.144,0,0,1,9.69,7.629c.951.281,1.106-.283,4.133,1.556l.523.314c.219.13.15.056.369.04a15.8,15.8,0,0,1,3.908-.55,15.873,15.873,0,0,1,3.962.564l.169.017c-.015,0,.046-.011.148-.072,3.781-2.29,3.645-1.542,4.659-1.871a7.266,7.266,0,0,1,.212,4.771c-.11.339,3.278,3.441,1.4,8.421-.767,2.032-2.7,4.606-7.551,5.329h0c.622.948,1.369,1.452,1.365,3.407v7.691c8.134-1.965,14.258-9.894,14.258-18.623A18.7,18.7,0,0,0,18.623,0Zm0,0"/></svg>